<svg width="19" height="19" viewBox="0 0 19 19" fill="none" xmlns="http://www.w3.org/2000/svg">
<path d="M16.8909 7.18494C17.331 7.18494 17.7188 7.34457 18.0452 7.62606C18.3261 7.93297 18.5 8.31744 18.5 8.74555V10.8062C18.5 11.2522 18.3368 11.6322 18.046 11.9257C17.7372 12.2128 17.3485 12.391 16.9151 12.391H13.4242C12.8418 12.391 12.4151 12.8729 12.4151 13.4001V16.9152C12.4151 17.3613 12.2519 17.7413 11.9612 18.0348C11.6524 18.3219 11.2637 18.5001 10.8303 18.5001H8.76967C8.32359 18.5001 7.94362 18.3369 7.6501 18.0461C7.36299 17.7373 7.18482 17.3487 7.18482 16.9152V13.4243C7.18482 12.842 6.70296 12.4152 6.17573 12.4152H2.68482C2.23875 12.4152 1.85878 12.252 1.56526 11.9613C1.27815 11.6525 1.09998 11.2638 1.09998 10.8304V8.76979C1.09998 8.32372 1.26318 7.94375 1.55395 7.65022C1.86272 7.36311 2.25141 7.18494 2.68482 7.18494H6.15149C6.73387 7.18494 7.16058 6.70308 7.16058 6.17585V2.68495C7.16058 2.23887 7.32379 1.8589 7.61455 1.56538C7.92333 1.27827 8.31201 1.1001 8.74543 1.1001H10.806C11.2521 1.1001 11.6321 1.26331 11.9256 1.55407C12.2127 1.86284 12.3909 2.25153 12.3909 2.68495V6.17585C12.3909 6.75823 12.8727 7.18494 13.4 7.18494H16.8909Z" fill="#8257E5" stroke="#8257E5"/>
</svg>
